<?xml version="1.0" encoding="UTF-8"?>
<svg version="1.1" viewBox="0 0 203.57 35.924" xmlns="http://www.w3.org/2000/svg" xmlns:cc="http://creativecommons.org/ns#" xmlns:dc="http://purl.org/dc/elements/1.1/" xmlns:rdf="http://www.w3.org/1999/02/22-rdf-syntax-ns#">
<metadata>
<rdf:RDF>
<cc:Work rdf:about="">
<dc:format>image/svg+xml</dc:format>
<dc:type rdf:resource="http://purl.org/dc/dcmitype/StillImage"/>
<dc:title/>
</cc:Work>
</rdf:RDF>
</metadata>
<g transform="translate(1463.7 -1066.8)">
<text x="236.70662" y="1312.47" fill="#a40000" font-family="sans-serif" font-size="12.8px" letter-spacing="0px" stroke-width="1.0667" word-spacing="0px" style="line-height:0%" xml:space="preserve"><tspan x="236.70662" y="1312.47" fill="#a40000" font-family="'Marcellus SC'" font-size="50.603px" font-weight="bold" stroke-width="1.0667" style="line-height:1.25"> </tspan></text>
<g fill="#f9572c" stroke-width="1.0667px">
<path d="m-1437.2 1098.3q0 1.3027-0.1503 4.3089h-0.5511q-0.3007 0-1.4531-0.1003-1.1524-0.1002-2.6054-0.1002l-20.843-0.1503q-0.8517 0-0.8517-0.4509 0-0.3507 1.3527-0.451 1.904-0.1003 2.2547-0.4009 0.4008-0.3507 0.4008-1.9039v-28.158q0-1.8538-0.4008-2.1544-0.3507-0.3007-2.6555-0.3007-0.9519 0-0.9519-0.5511 0-0.4509 0.6011-0.4509h0.451q1.6535 0.1503 6.5637 0.1503 0.4508 0 1.7536-0.05 1.3027-0.1002 2.1544-0.1002h0.5512q0.9018 0 0.9018 0.501 0 0.3006-0.3006 0.4008-0.2505 0.05-1.7035 0.1003-1.453 0.05-1.7536 0.5011-0.2506 0.4008-0.2506 2.6054v29.561q1.3529 0.05 3.7578 0.05 5.8622 0 8.2672-0.6013 2.405-0.6012 3.2567-2.2546 0.8517-1.6535 1.002-4.4593 0.05-0.6513 0.6013-0.6513 0.6514 0 0.6013 0.7515l-0.05 1.2526q0 0.1003 0 0.451 0.05 0.3507 0.05 0.7014v1.9541z"/>
<path d="m-1404.3 1102q0 0.451-0.7516 0.451-0.501 0-0.9019-0.05l-6.3632-0.1003-6.3632 0.1003q-0.3507 0.05-0.7515 0.05-1.0021 0-1.0021-0.5011 0-0.5511 1.3528-0.5511 4.4092-0.05 4.4092-0.9019 0-0.05-0.1003-0.4007l-0.4008-1.3529-0.2505-0.7014q-0.451-1.5533-2.2046-6.8643h-10.722q-3.0062 8.0166-3.0062 9.2191 0 0.7015 0.6011 0.8518 0.1504 0.05 2.5053 0.2004 1.453 0.05 1.453 0.501 0 0.5011-1.3027 0.5011-2.3048 0-5.3612-0.2004-0.7515-0.05-1.5531-0.05-0.8017 0-1.5533 0.1002-0.4008 0.05-0.6513 0.05-0.7015 0-0.7015-0.4509 0-0.451 1.5532-0.5011 1.6033-0.05 2.3049-0.4509 0.7014-0.451 1.1023-1.6534 6.4633-18.438 10.522-29.612 0.1002-0.6012 0.4007-1.3528l0.2506-0.9019q0.1503-0.5511 0.4008-0.5511 0.1503 0 0.2505 0.3007 0.6514 1.954 2.9562 8.1669 1.8037 4.8601 8.9686 24.4 0.4008 1.1023 1.002 1.403 0.6514 0.3006 2.6055 0.3507 1.3027 0.05 1.3027 0.5011zm-13.628-11.975q-0.8017-2.2547-2.6556-7.4655l-2.4049-6.8642q-2.1044 5.5115-5.0606 14.33z"/>
<path d="m-1380.3 1093.2q0 5.1106-4.6596 7.5658-2.2547 1.2024-6.4634 1.503-1.1524 0.05-6.8142 0.05h-6.1126q-0.8517 0-0.8517-0.4509 0-0.451 1.5531-0.451 1.8038 0 2.1044-0.3507 0.3507-0.4009 0.3507-2.3048v-27.106q0-2.2046-0.2003-2.5553-0.3509-0.6013-2.5554-0.6513-1.3528 0-1.3528-0.5011 0-0.4509 1.2526-0.4509 0.05 0 0.6013 0 0.5511 0.05 1.002 0.05l9.7703 0.1003q5.4112 0.05 8.0667 1.8037 3.1065 2.0543 3.1065 5.9624 0 3.4071-2.5554 5.6116-2.5553 2.1545-7.1648 2.7056v0.3007q4.5594 0.3006 7.1147 1.9039 3.8079 2.405 3.8079 7.265zm-6.7139-17.286q0-4.8101-2.2045-6.4134-1.1524-0.8517-4.359-0.8517-0.8519 0-2.6556 0.1503v14.53h0.451l2.7556-0.1002q2.856-0.1003 4.4092-2.0042 1.6033-1.954 1.6033-5.3109zm1.453 16.735q0-6.3131-5.1105-7.8162-1.5032-0.4509-5.5616-0.4509v14.931q0 1.453 0.3006 1.6534 0.5011 0.3507 2.8058 0.3507 3.4572 0 5.5115-2.2045 2.0542-2.2046 2.0542-6.4635z"/>
<path d="m-1345.4 1102q0 0.451-0.7515 0.451-0.5011 0-0.9019-0.05l-6.3631-0.1003-6.3632 0.1003q-0.3508 0.05-0.7516 0.05-1.0021 0-1.0021-0.5011 0-0.5511 1.3528-0.5511 4.4091-0.05 4.4091-0.9019 0-0.05-0.1003-0.4007l-0.4008-1.3529-0.2505-0.7014q-0.451-1.5533-2.2046-6.8643h-10.722q-3.0063 8.0166-3.0063 9.2191 0 0.7015 0.6013 0.8518 0.1503 0.05 2.5052 0.2004 1.453 0.05 1.453 0.501 0 0.5011-1.3027 0.5011-2.3048 0-5.3611-0.2004-0.7516-0.05-1.5532-0.05-0.8017 0-1.5533 0.1002-0.4008 0.05-0.6513 0.05-0.7014 0-0.7014-0.4509 0-0.451 1.5532-0.5011 1.6033-0.05 2.3047-0.4509 0.7015-0.451 1.1023-1.6534 6.4635-18.438 10.522-29.612 0.1003-0.6012 0.4009-1.3528l0.2505-0.9019q0.1503-0.5511 0.4008-0.5511 0.1504 0 0.2505 0.3007 0.6513 1.954 2.9562 8.1669 1.8037 4.8601 8.9685 24.4 0.4009 1.1023 1.0022 1.403 0.6513 0.3006 2.6054 0.3507 1.3026 0.05 1.3026 0.5011zm-13.628-11.975q-0.8016-2.2547-2.6555-7.4655l-2.405-6.8642q-2.1043 5.5115-5.0605 14.33z"/>
<path d="m-1315.4 1068q0 0.501-1.2527 0.451l-1.1022-0.05h-0.902q-0.8016 0-0.9519 0.3006-0.1503 0.2506-0.1503 1.6535v28.86q0 2.6556-0.05 3.1065-0.05 0.451-0.3007 0.451-0.3006 0-0.7014-0.5512l-6.4133-9.3695q-5.5616-8.1669-13.528-20.392l0.05 27.958q0.05 0.6513 0.7515 0.8517 0.7015 0.1503 3.357 0.2004 0.6514 0 0.6514 0.4009 0 0.501-1.3028 0.501-0.4509 0-2.8558-0.1503-0.8018-0.05-1.5533-0.05 0.05 0-0.9019 0.1002-0.9019 0.1003-2.8058 0.1003h-0.5011q-1.1523 0-1.1523-0.451 0-0.4509 1.002-0.4509 2.9562-0.05 3.4071-0.3507 0.5011-0.3507 0.5011-2.1544v-24.701q0-4.1586-1.7036-5.2108-0.8017-0.5011-2.8559-0.5011-1.3027 0-1.3027-0.501 0-0.451 0.7516-0.451 1.002 0 2.5553 0.05 1.5532 0.05 1.6534 0.05 0.1503 0 1.4029-0.05 1.6534 0 3.2066-0.05l17.286 25.703v-22.296q0-1.5533-0.05-1.8539-0.05-0.3507-0.4009-0.501-0.3507-0.2004-2.4049-0.2004-1.8037 0-1.8037-0.451 0-0.501 1.2024-0.501h1.7536q0.6514 0 1.403 0 0.8016 0.05 0.9519 0.05 0.05 0 0.9019-0.05 0.8017 0 1.5031 0h1.5533q1.1023 0 1.1023 0.501z"/>
<path d="m-1282.3 1102q0 0.451-0.7516 0.451-0.5011 0-0.9019-0.05l-6.3632-0.1003-6.3632 0.1003q-0.3507 0.05-0.7515 0.05-1.0022 0-1.0022-0.5011 0-0.5511 1.3529-0.5511 4.4092-0.05 4.4092-0.9019 0-0.05-0.1003-0.4007l-0.4009-1.3529-0.2504-0.7014q-0.451-1.5533-2.2046-6.8643h-10.722q-3.0062 8.0166-3.0062 9.2191 0 0.7015 0.6011 0.8518 0.1503 0.05 2.5052 0.2004 1.453 0.05 1.453 0.501 0 0.5011-1.3026 0.5011-2.3048 0-5.3612-0.2004-0.7515-0.05-1.5531-0.05-0.8017 0-1.5533 0.1002-0.4009 0.05-0.6513 0.05-0.7015 0-0.7015-0.4509 0-0.451 1.5532-0.5011 1.6033-0.05 2.3048-0.4509 0.7015-0.451 1.1023-1.6534 6.4634-18.438 10.522-29.612 0.1002-0.6012 0.4008-1.3528l0.2506-0.9019q0.1503-0.5511 0.4008-0.5511 0.1503 0 0.2505 0.3007 0.6514 1.954 2.9562 8.1669 1.8037 4.8601 8.9686 24.4 0.4007 1.1023 1.002 1.403 0.6513 0.3006 2.6055 0.3507 1.3027 0.05 1.3027 0.5011zm-13.628-11.975q-0.8017-2.2547-2.6556-7.4655l-2.405-6.8642q-2.1043 5.5115-5.0605 14.33z"/>
</g>
<path d="m-1293.4 1066.9h33.295v23.161h-24.828z" fill="#6cc307"/>
<g fill="#fff" stroke-width="1.0667px">
<path d="m-1276.9 1072.7q0 0.3545-0.1493 0.6717-0.1306 0.2986-0.3733 0.5225-0.2239 0.2239-0.5598 0.3546-0.3172 0.1305-0.6716 0.1305-0.7465 0-1.2503-0.4851-0.5039-0.5038-0.5039-1.1942 0-0.3359 0.1307-0.6345 0.1307-0.3172 0.3732-0.5411 0.2426-0.2239 0.5598-0.3546 0.3172-0.1492 0.6905-0.1492 0.3544 0 0.6716 0.1306 0.3359 0.1306 0.5598 0.3545 0.2427 0.2239 0.3733 0.5411 0.1493 0.2986 0.1493 0.6532zm-3.2842 12.26v-9.2927h3.0602v9.2927z"/>
<path d="m-1267.7 1085v-1.2129h-0.037q-0.4478 0.7091-1.2876 1.101-0.821 0.3731-1.754 0.3731-1.0449 0-1.866-0.4104-0.8211-0.4106-1.3995-1.0824-0.5598-0.6903-0.8584-1.586-0.2985-0.8957-0.2985-1.866 0-0.9704 0.2985-1.8474 0.3173-0.8957 0.877-1.5675 0.5785-0.6718 1.3809-1.0635 0.8211-0.3919 1.8286-0.3919 1.0264 0 1.7355 0.3919 0.709 0.3917 1.1009 0.8583h0.037v-5.8033h3.0603v14.107zm-0.112-4.665q0-0.4479-0.1679-0.877-0.1492-0.4292-0.4478-0.7651-0.28-0.3359-0.6904-0.5411-0.4106-0.2053-0.933-0.2053-0.5412 0-0.9517 0.2053-0.4106 0.2052-0.6905 0.5411-0.2799 0.3172-0.4291 0.7464-0.1307 0.4292-0.1307 0.8771 0 0.4477 0.1307 0.8956 0.1492 0.4292 0.4291 0.7651 0.2799 0.3358 0.6905 0.5412 0.4105 0.2052 0.9517 0.2052 0.5224 0 0.933-0.2052 0.4104-0.2054 0.6904-0.5412 0.2986-0.3359 0.4478-0.7651 0.1679-0.4292 0.1679-0.877z"/>
</g>
</g>
</svg>
